<svg xmlns="http://www.w3.org/2000/svg" viewBox="0 0 900 650">
<defs><linearGradient id="bg" x1="0" y1="0" x2="1" y2="1"><stop stop-color="#415C65"/><stop offset="1" stop-color="#C8B49A"/></linearGradient><filter id="shadow"><feDropShadow dx="0" dy="18" stdDeviation="18" flood-opacity=".22"/></filter></defs>
<rect width="900" height="650" fill="url(#bg)"/>
<circle cx="760" cy="100" r="130" fill="#B45B53" opacity=".16"/><circle cx="120" cy="560" r="170" fill="#D09A61" opacity=".10"/>
<rect x="175" y="75" width="520" height="455" rx="12" fill="#F5ECDD" filter="url(#shadow)"/>
<path d="M205 390 C300 300 325 405 400 260 C455 155 530 300 655 170 L655 485 L205 485Z" fill="#5E8C9B" opacity=".82"/>
<path d="M210 360 C300 300 355 355 430 280 C500 210 560 275 650 210" fill="none" stroke="#D09A61" stroke-width="35" opacity=".85"/>
<circle cx="555" cy="195" r="54" fill="#B45B53" opacity=".82"/>
<path d="M160 525 Q450 465 735 525" fill="none" stroke="#7A5C49" stroke-width="12"/>

<text x="55" y="585" font-family="Georgia,serif" font-size="27" font-weight="700" fill="#F8F3E9">WATERCOLOR STUDY</text>
<text x="55" y="620" font-family="Arial,sans-serif" font-size="15" letter-spacing="3" fill="#E9E1D4">ARTISEN STUDIO / 2026</text>
</svg>